<?xml version="1.0" encoding="UTF-8" standalone="no"?>
<!DOCTYPE svg PUBLIC "-//W3C//DTD SVG 1.1//EN" "http://www.w3.org/Graphics/SVG/1.1/DTD/svg11.dtd">
<svg version="1.1" xmlns="http://www.w3.org/2000/svg" xmlns:xlink="http://www.w3.org/1999/xlink" preserveAspectRatio="xMidYMid meet" viewBox="0 0 42.36 30" width="42.36" height="30"><defs><path d="M0 0L42.36 0L42.36 30L0 30L0 0Z" id="a6NLV60I0Q"></path><path d="M38.18 22C39.84 22 41.18 23.34 41.18 25C41.18 25.6 41.18 24.4 41.18 25C41.18 26.66 39.84 28 38.18 28C30.78 28 11.58 28 4.18 28C2.52 28 1.18 26.66 1.18 25C1.18 24.4 1.18 25.6 1.18 25C1.18 23.34 2.52 22 4.18 22C11.58 22 30.78 22 38.18 22Z" id="ckN4tQL3Q"></path><linearGradient id="gradiente9WOZf4AK" gradientUnits="userSpaceOnUse" x1="21.18" y1="22" x2="21.18" y2="43.9"><stop style="stop-color: #ffdc00;stop-opacity: 1" offset="0%"></stop><stop style="stop-color: #0be886;stop-opacity: 1" offset="100%"></stop></linearGradient><clipPath id="clipa3Y17ZmyEd"><use xlink:href="#ckN4tQL3Q" opacity="1"></use></clipPath><path d="M38.18 12C39.84 12 41.18 13.34 41.18 15C41.18 15.6 41.18 14.4 41.18 15C41.18 16.66 39.84 18 38.18 18C30.78 18 11.58 18 4.18 18C2.52 18 1.18 16.66 1.18 15C1.18 14.4 1.18 15.6 1.18 15C1.18 13.34 2.52 12 4.18 12C11.58 12 30.78 12 38.18 12Z" id="b1vSbaOS9n"></path><linearGradient id="gradientac5RMmV4r" gradientUnits="userSpaceOnUse" x1="21.18" y1="12" x2="21.18" y2="33.9"><stop style="stop-color: #ffdc00;stop-opacity: 1" offset="0%"></stop><stop style="stop-color: #0be886;stop-opacity: 1" offset="100%"></stop></linearGradient><clipPath id="clipa10pa2bzkU"><use xlink:href="#b1vSbaOS9n" opacity="1"></use></clipPath><path d="M38.18 2C39.84 2 41.18 3.34 41.18 5C41.18 5.6 41.18 4.4 41.18 5C41.18 6.66 39.84 8 38.18 8C30.78 8 11.58 8 4.18 8C2.52 8 1.18 6.66 1.18 5C1.18 4.4 1.18 5.6 1.18 5C1.18 3.34 2.52 2 4.18 2C11.58 2 30.78 2 38.18 2Z" id="bmYOODQyz"></path><linearGradient id="gradientl25IdGA4Lr" gradientUnits="userSpaceOnUse" x1="21.18" y1="2" x2="21.18" y2="23.9"><stop style="stop-color: #ffdc00;stop-opacity: 1" offset="0%"></stop><stop style="stop-color: #0be886;stop-opacity: 1" offset="100%"></stop></linearGradient><clipPath id="clipcpf4s7Tr1"><use xlink:href="#bmYOODQyz" opacity="1"></use></clipPath></defs><g><g><g><use xlink:href="#a6NLV60I0Q" opacity="1" fill="#73765c" fill-opacity="0"></use></g><g><use xlink:href="#ckN4tQL3Q" opacity="1" fill="url(#gradiente9WOZf4AK)"></use><g clip-path="url(#clipa3Y17ZmyEd)"><use xlink:href="#ckN4tQL3Q" opacity="1" fill-opacity="0" stroke="#e9e20c" stroke-width="2" stroke-opacity="0.78"></use></g></g><g><use xlink:href="#b1vSbaOS9n" opacity="1" fill="url(#gradientac5RMmV4r)"></use><g clip-path="url(#clipa10pa2bzkU)"><use xlink:href="#b1vSbaOS9n" opacity="1" fill-opacity="0" stroke="#e9e20c" stroke-width="2" stroke-opacity="0.78"></use></g></g><g><use xlink:href="#bmYOODQyz" opacity="1" fill="url(#gradientl25IdGA4Lr)"></use><g clip-path="url(#clipcpf4s7Tr1)"><use xlink:href="#bmYOODQyz" opacity="1" fill-opacity="0" stroke="#e9e20c" stroke-width="2" stroke-opacity="0.78"></use></g></g></g></g></svg>